<svg version="1" xmlns="http://www.w3.org/2000/svg" width="257.333" height="257.333" viewBox="0 0 193.000000 193.000000"><path d="M86.8 41.7C74.1 61.9 74.5 61.1 68.4 73.8c-7 14.4-9.4 23.3-8.2 30.9 3 18.9 18.9 31.8 38.2 30.9 25.2-1.2 41.2-24.2 33.2-47.7-2.4-6.9-8.3-19-14.9-30.4C109.5 44.9 97.9 27 97 27c-.5 0-5 6.6-10.2 14.7z"/><path d="M36.5 132.2c-10.4 2.3-23.2 7-26.9 9.9-5.4 4.3-2.1 9.1 9.2 13.7 5.9 2.4 25.4 6.9 32.8 7.7 2.7.3 5.8.7 6.9.9 12.1 2.4 56.4 2.4 76.5 0 29.3-3.5 52-11.3 52-17.9 0-3.1-7.2-7.6-17.6-10.9-5.5-1.8-22.4-5.6-22.4-5.1 0 .2 2.2 1.6 4.9 3.1 11.7 6.3 9.1 15.6-5.9 20.9-5.4 1.9-15.2 4-24 5.2-8.3 1-42.5 1-51 0-24.2-3.1-37-9.2-37-17.6 0-2.7 3.7-6.9 8.1-9.1 2.1-1.1 3.9-2.3 3.9-2.5 0-.3-.1-.4-.2-.4-.2.1-4.3 1-9.3 2.1z"/><path d="M59 135.1c-8.6 1.9-17 5.5-17.7 7.6-.7 2.1 11.3 6.7 23.2 8.8 11.9 2.1 39.6 2.7 55 1.2 14.7-1.4 32.5-6.7 32.5-9.7 0-2.6-8.8-6.2-20.5-8.4-5.9-1.1-6.1-1.1-11.5 2.2-14.8 8.8-33.6 8.7-47.1-.4-2.8-1.9-5.2-3.4-5.3-3.3 0 0-3.9.9-8.6 2z"/></svg>