<?xml version="1.0" standalone="no"?>
<!DOCTYPE svg PUBLIC "-//W3C//DTD SVG 20010904//EN"
 "http://www.w3.org/TR/2001/REC-SVG-20010904/DTD/svg10.dtd">
<svg version="1.0" xmlns="http://www.w3.org/2000/svg"
 width="888.000000pt" height="888.000000pt" viewBox="0 0 888.000000 888.000000"
 preserveAspectRatio="xMidYMid meet">
<g transform="translate(0.000000,888.000000) scale(0.100000,-0.100000)"
fill="#000000" stroke="none">
<path d="M4198 8855 c-1 -2 -46 -6 -98 -9 -52 -3 -106 -8 -120 -10 -14 -3 -50
-7 -80 -10 -67 -7 -127 -15 -160 -22 -14 -3 -32 -6 -40 -6 -8 0 -67 -11 -130
-25 -63 -13 -128 -26 -144 -29 -16 -3 -33 -7 -37 -10 -5 -3 -21 -7 -36 -9 -45
-8 -198 -52 -222 -64 -11 -7 -21 -10 -21 -7 0 2 -51 -14 -112 -36 -62 -22
-124 -43 -138 -48 -88 -29 -413 -176 -495 -224 -16 -10 -77 -44 -135 -77 -127
-72 -122 -69 -238 -146 -52 -35 -98 -63 -102 -63 -5 0 -10 -3 -12 -7 -1 -5
-34 -30 -71 -58 -38 -27 -85 -63 -106 -80 -21 -16 -54 -42 -73 -57 -19 -15
-46 -37 -60 -50 -14 -13 -56 -50 -93 -83 -92 -81 -256 -245 -332 -330 -98
-112 -111 -127 -156 -185 -23 -30 -45 -57 -48 -60 -14 -11 -109 -142 -109
-150 0 -4 -4 -10 -9 -12 -12 -4 -201 -294 -201 -307 0 -6 -4 -11 -10 -11 -5 0
-9 -3 -8 -7 1 -5 -17 -40 -40 -80 -23 -39 -42 -76 -42 -81 0 -5 -8 -20 -18
-33 -21 -28 -108 -213 -162 -344 -46 -113 -52 -128 -56 -140 -2 -5 -26 -75
-53 -155 -62 -180 -137 -463 -156 -590 -2 -14 -6 -41 -9 -60 -3 -19 -8 -46
-11 -60 -6 -28 -10 -55 -20 -145 -4 -33 -9 -73 -11 -90 -27 -197 -26 -708 1
-942 9 -79 14 -118 20 -153 3 -19 7 -51 10 -70 3 -19 7 -46 10 -60 4 -25 31
-156 39 -195 3 -11 7 -33 11 -50 3 -16 13 -57 22 -90 8 -33 16 -67 18 -75 2
-8 13 -46 25 -84 12 -38 23 -76 25 -85 2 -9 17 -52 33 -96 16 -44 35 -96 42
-115 6 -19 14 -42 18 -50 3 -8 6 -17 7 -20 0 -3 9 -20 18 -37 10 -18 18 -36
18 -40 4 -26 17 -55 113 -253 36 -74 86 -171 111 -215 24 -44 52 -93 61 -110
9 -16 20 -32 23 -35 4 -3 12 -16 19 -30 16 -33 33 -59 54 -84 10 -11 18 -24
18 -29 0 -4 6 -15 12 -22 29 -32 38 -45 38 -53 0 -4 8 -17 18 -28 9 -10 35
-43 56 -73 21 -30 42 -59 47 -65 5 -6 34 -42 65 -81 99 -124 164 -197 293
-330 114 -118 278 -266 385 -350 21 -16 44 -35 50 -41 53 -50 445 -314 467
-314 5 0 9 -4 9 -9 0 -5 8 -11 18 -14 9 -3 42 -20 72 -38 109 -64 377 -194
393 -191 4 1 7 -2 7 -6 0 -5 6 -9 13 -9 6 -1 55 -19 107 -40 93 -39 190 -77
200 -78 3 -1 57 -17 120 -37 141 -45 198 -61 227 -64 12 -2 32 -8 43 -14 12
-6 24 -9 27 -6 3 2 16 1 30 -5 13 -5 38 -11 56 -14 18 -4 52 -11 77 -16 25 -6
59 -12 75 -15 17 -2 41 -6 55 -9 14 -3 44 -8 67 -11 l42 -5 1 221 c0 204 -1
220 -17 222 -52 4 -79 9 -198 38 -71 17 -141 33 -155 36 -14 2 -34 8 -45 11
-11 4 -24 8 -30 9 -5 1 -73 23 -150 49 -175 59 -326 120 -475 193 -63 31 -117
57 -120 57 -6 2 -35 18 -193 113 -157 94 -157 94 -181 114 -11 10 -25 18 -32
18 -7 0 -14 3 -16 8 -1 4 -32 28 -68 54 -95 69 -118 87 -190 148 -36 30 -74
61 -85 70 -35 27 -369 364 -404 409 -32 40 -44 55 -114 136 -15 18 -27 37 -27
43 0 6 -4 12 -9 14 -13 4 -153 207 -213 307 -28 48 -56 95 -63 106 -7 11 -12
24 -13 29 0 5 -4 12 -9 15 -9 6 -154 286 -153 296 0 3 -9 25 -20 50 -11 25
-29 65 -40 90 -11 25 -20 51 -20 58 0 7 -4 17 -9 23 -20 22 -151 455 -166 549
-1 11 -7 40 -13 65 -13 55 -25 126 -36 205 -3 22 -8 57 -11 78 -11 82 -14 105
-21 187 -10 114 -11 502 -1 620 10 121 20 211 32 280 3 19 7 51 10 70 3 19 7
46 10 60 3 14 8 39 11 55 2 17 9 46 14 65 5 19 11 49 14 65 3 17 17 71 32 120
14 50 26 98 26 107 -1 10 3 20 9 23 5 4 9 15 9 25 0 10 5 31 12 47 6 15 12 30
13 33 9 39 81 230 111 300 46 104 150 315 157 318 4 2 7 8 7 14 0 6 20 44 45
86 25 41 45 76 45 79 0 5 181 277 189 283 4 3 25 30 46 60 45 62 48 66 136
170 140 165 404 430 430 430 5 0 9 4 9 8 0 4 21 24 48 44 26 20 56 45 67 55
44 40 357 263 369 263 2 0 43 24 92 54 93 56 263 144 374 194 128 58 411 165
470 177 8 2 28 8 43 14 16 6 32 9 37 6 5 -3 14 0 22 7 7 7 22 14 33 15 11 1
56 11 100 23 44 11 96 23 115 26 46 8 65 12 65 14 0 1 14 3 30 5 17 2 62 9
100 16 39 6 81 13 95 14 25 3 103 12 175 21 22 3 46 5 53 4 6 0 18 0 25 1 6 0
122 1 257 2 250 1 353 -4 525 -28 22 -3 58 -7 80 -9 22 -3 40 -5 40 -6 0 -1
14 -4 30 -6 17 -3 53 -9 80 -14 28 -6 59 -12 70 -14 66 -13 255 -62 340 -89
55 -17 102 -32 105 -32 3 -1 13 -5 23 -8 40 -16 53 -20 62 -23 6 -1 24 -7 40
-14 17 -6 30 -11 30 -10 0 1 33 -13 73 -30 91 -39 126 -53 132 -55 31 -8 328
-164 397 -208 24 -15 45 -27 48 -27 8 0 235 -154 264 -179 13 -12 28 -21 33
-21 5 0 19 -9 31 -21 12 -11 35 -30 51 -42 166 -126 460 -410 586 -566 19 -24
45 -54 58 -67 12 -13 22 -27 22 -31 0 -4 16 -26 36 -48 19 -22 43 -52 52 -67
9 -16 20 -28 24 -28 4 0 8 -6 8 -13 0 -8 9 -22 20 -32 11 -10 20 -23 20 -29 0
-6 11 -24 25 -39 14 -15 22 -27 18 -27 -4 0 -3 -4 2 -8 11 -7 49 -63 50 -72 0
-3 14 -25 30 -50 79 -122 215 -398 287 -580 39 -98 128 -360 123 -360 -3 0 0
-12 6 -27 6 -16 12 -35 14 -43 2 -8 8 -30 14 -47 5 -18 8 -33 5 -33 -3 0 0 -8
5 -17 5 -10 11 -34 15 -53 3 -19 10 -57 15 -85 6 -27 13 -61 15 -75 3 -14 7
-36 10 -50 13 -70 30 -197 43 -335 9 -99 9 -563 0 -665 -16 -175 -20 -199 -42
-325 -8 -44 -17 -96 -20 -115 -3 -19 -8 -42 -10 -50 -2 -8 -6 -26 -9 -40 -2
-14 -12 -54 -21 -90 -9 -36 -18 -72 -20 -80 -2 -8 -8 -28 -15 -45 -6 -16 -11
-31 -10 -33 1 -1 -7 -28 -16 -60 -10 -31 -18 -59 -18 -62 -1 -3 -4 -9 -7 -15
-4 -5 -10 -26 -14 -45 -4 -19 -11 -39 -14 -45 -4 -5 -16 -32 -26 -60 -49 -137
-177 -414 -252 -545 -70 -122 -193 -313 -205 -318 -5 -2 -8 -8 -8 -13 0 -8
-74 -113 -90 -129 -3 -3 -21 -25 -40 -50 -19 -25 -37 -47 -40 -50 -3 -3 -25
-30 -50 -60 -75 -91 -232 -254 -351 -365 -43 -39 -249 -210 -294 -243 -259
-191 -530 -347 -811 -467 -93 -40 -276 -110 -309 -119 -5 -1 -44 -13 -85 -26
-41 -13 -79 -25 -85 -26 -130 -35 -275 -70 -330 -79 -28 -4 -43 -7 -105 -20
-23 -4 -93 -14 -148 -20 -12 -1 -25 -4 -27 -7 -5 -5 -7 -107 -6 -300 l1 -128
48 5 c26 2 71 9 100 14 29 6 56 10 60 10 4 -1 9 0 12 1 3 1 16 3 30 5 14 1 50
7 80 13 30 6 67 14 83 17 50 9 82 17 177 40 36 9 70 18 75 19 6 2 30 9 55 16
51 15 57 17 85 24 42 10 208 67 287 98 46 18 85 33 88 33 13 4 69 28 103 45
20 11 37 18 37 15 0 -3 20 7 44 20 25 14 51 25 58 25 8 0 20 6 27 12 6 7 15
13 19 13 4 1 35 15 69 33 35 18 66 32 69 31 4 0 10 4 13 9 3 5 26 19 51 32 45
22 213 123 280 167 19 13 42 28 50 33 14 10 125 88 180 127 13 10 50 39 82 65
31 27 59 48 62 48 5 0 66 52 119 103 22 20 42 37 45 37 7 0 307 303 367 371
52 59 55 63 120 144 22 28 42 52 45 55 3 3 17 21 30 40 13 19 30 41 36 47 7 7
48 66 91 130 43 65 83 123 90 130 6 7 17 26 25 43 7 16 16 30 20 30 5 0 8 4 8
9 0 5 18 38 39 74 47 76 177 328 210 407 13 30 32 74 42 98 27 60 110 280 121
322 5 19 12 42 15 50 4 8 7 17 8 20 1 3 4 12 8 20 9 23 66 232 71 262 2 15 7
31 9 35 3 5 8 24 11 43 3 19 8 46 11 60 22 109 35 180 40 210 1 8 5 38 9 65 4
28 10 61 12 75 15 89 19 221 19 570 0 217 -3 422 -8 455 -4 33 -10 78 -12 100
-3 22 -8 56 -11 75 -3 19 -7 47 -9 62 -8 54 -27 155 -43 226 -5 23 -8 42 -6
42 3 0 0 9 -6 20 -6 10 -12 32 -14 47 -5 33 -9 48 -31 128 -28 101 -51 179
-58 195 -3 8 -14 42 -25 75 -34 101 -82 228 -103 271 -10 22 -19 44 -19 48 0
30 -258 522 -296 567 -8 9 -12 18 -9 21 3 3 -4 13 -15 23 -11 10 -20 24 -20
32 0 7 -4 13 -10 13 -5 0 -10 4 -10 10 0 8 -107 168 -137 205 -5 6 -22 28 -38
50 -17 22 -33 42 -37 43 -5 2 -8 7 -8 12 0 4 -11 21 -24 36 -111 132 -165 194
-193 222 -18 18 -33 35 -33 37 0 12 -253 255 -365 350 -32 28 -70 60 -83 73
-14 12 -28 22 -31 22 -3 0 -17 10 -31 23 -14 12 -43 35 -65 51 -22 17 -42 32
-45 35 -3 4 -12 11 -21 16 -9 6 -63 42 -120 81 -117 80 -237 154 -249 154 -5
0 -10 3 -12 8 -5 11 -86 55 -273 146 -192 95 -390 178 -495 208 -19 6 -39 13
-45 16 -5 4 -14 7 -20 9 -5 1 -64 18 -130 38 -168 50 -244 69 -355 91 -14 3
-56 11 -95 19 -38 8 -88 16 -110 19 -22 3 -56 8 -75 11 -65 10 -105 15 -160
20 -30 3 -80 8 -110 11 -63 6 -606 14 -612 9z"/>
<path d="M4427 7934 c-1 -1 -65 -5 -142 -8 -77 -3 -158 -8 -180 -11 -98 -11
-151 -18 -220 -30 -16 -3 -46 -8 -65 -11 -19 -3 -63 -12 -96 -20 -34 -8 -75
-17 -90 -19 -16 -2 -30 -4 -31 -6 -2 -1 -6 -2 -10 -3 -63 -17 -113 -31 -183
-53 -47 -15 -87 -28 -90 -29 -3 0 -12 -4 -20 -7 -8 -4 -53 -20 -99 -37 -193
-70 -577 -260 -589 -292 -2 -4 -9 -8 -15 -8 -10 0 -129 -74 -172 -107 -6 -5
-46 -35 -90 -67 -44 -33 -82 -62 -85 -66 -3 -3 -14 -13 -26 -21 -80 -54 -348
-314 -454 -438 -30 -36 -63 -73 -72 -83 -10 -10 -18 -22 -18 -27 0 -5 -4 -11
-8 -13 -10 -4 -106 -133 -165 -223 -26 -38 -50 -75 -54 -81 -18 -23 -34 -50
-45 -74 -7 -14 -16 -27 -19 -30 -4 -3 -32 -54 -64 -115 -31 -60 -60 -117 -65
-125 -53 -101 -197 -473 -215 -555 -1 -5 -8 -30 -15 -55 -7 -25 -14 -49 -15
-55 0 -5 -6 -28 -12 -50 -7 -22 -14 -53 -17 -70 -3 -16 -8 -41 -11 -55 -8 -32
-35 -193 -41 -245 -3 -22 -7 -54 -9 -72 -27 -193 -26 -627 0 -818 4 -22 8 -53
9 -70 10 -84 58 -321 86 -425 12 -41 22 -82 24 -91 3 -9 19 -58 36 -110 18
-52 33 -98 34 -104 4 -12 13 -35 43 -104 12 -29 23 -57 23 -62 0 -12 135 -285
175 -354 19 -33 40 -71 47 -85 15 -29 148 -232 157 -240 3 -3 22 -27 41 -55
19 -27 39 -55 45 -61 5 -6 21 -26 35 -44 14 -18 33 -42 43 -54 10 -11 42 -48
70 -81 71 -82 295 -305 307 -305 5 0 13 -6 17 -14 4 -8 28 -30 53 -51 25 -20
54 -44 65 -53 41 -35 214 -162 220 -162 3 0 15 -9 27 -20 12 -11 34 -26 50
-32 15 -7 28 -16 28 -20 0 -5 4 -8 9 -8 5 0 48 -24 97 -53 105 -63 263 -144
354 -182 36 -15 81 -35 100 -43 19 -9 40 -17 45 -18 6 -1 24 -8 40 -15 17 -7
32 -13 35 -14 3 0 37 -11 75 -25 39 -13 72 -23 75 -23 3 0 16 -4 30 -9 26 -11
151 -46 185 -53 36 -7 60 -13 60 -15 0 -2 8 -4 65 -15 83 -16 75 -41 77 242
l2 253 -27 6 c-63 13 -189 46 -207 53 -11 5 -47 17 -80 26 -67 19 -212 74
-292 111 -123 56 -170 79 -205 101 -21 13 -44 23 -53 23 -8 0 -15 4 -15 8 0 5
-12 14 -27 21 -37 17 -272 174 -300 200 -12 12 -25 21 -28 21 -4 0 -12 6 -19
13 -7 6 -30 26 -50 42 -77 62 -144 123 -241 221 -105 106 -126 128 -190 209
-22 27 -48 59 -58 70 -10 11 -26 32 -35 48 -9 15 -20 27 -24 27 -4 0 -8 6 -8
13 0 8 -9 22 -20 32 -11 10 -20 24 -20 32 0 7 -4 13 -9 13 -5 0 -13 9 -16 20
-3 11 -12 26 -19 33 -8 7 -23 31 -35 53 -26 48 -44 77 -52 84 -16 14 -177 358
-199 423 -7 22 -18 51 -26 65 -8 15 -14 32 -14 37 0 6 -11 44 -24 85 -14 41
-27 86 -30 100 -3 14 -9 40 -15 59 -17 57 -53 236 -67 339 -12 88 -14 114 -21
202 -15 222 -2 503 32 690 2 14 7 41 9 60 3 19 8 46 11 60 3 14 8 39 11 55 2
17 15 71 29 120 14 50 27 97 30 105 2 8 4 15 5 15 1 0 3 8 5 17 6 34 48 153
58 166 5 6 7 12 3 12 -4 0 2 17 13 39 11 21 17 41 14 45 -4 3 -1 6 5 6 7 0 12
7 12 15 0 18 120 266 164 340 116 195 267 401 373 512 13 13 23 26 23 28 0 5
140 144 214 212 47 43 87 76 201 166 6 4 35 25 65 47 30 22 60 43 65 48 33 27
284 171 379 217 148 71 339 147 441 175 17 5 55 16 85 25 30 9 66 18 80 21 14
3 33 7 42 10 19 6 36 9 143 29 279 51 646 63 905 29 25 -3 59 -7 75 -9 17 -1
30 -4 30 -5 0 -1 16 -3 35 -5 126 -11 420 -91 620 -167 118 -45 283 -124 385
-183 33 -19 66 -38 74 -42 12 -5 100 -62 165 -105 35 -24 181 -131 192 -142 7
-6 31 -27 55 -46 85 -66 336 -326 417 -430 45 -58 86 -109 90 -115 43 -54 249
-389 252 -410 1 -2 24 -53 52 -112 27 -60 51 -112 52 -118 2 -5 10 -27 19 -49
9 -21 17 -42 17 -47 0 -5 4 -17 9 -27 6 -9 17 -42 26 -72 9 -30 19 -62 22 -70
3 -8 7 -19 8 -25 2 -5 13 -46 25 -90 12 -44 23 -90 26 -102 2 -13 6 -33 8 -45
3 -13 11 -57 19 -98 8 -41 15 -82 15 -90 0 -8 3 -31 6 -50 12 -86 18 -140 20
-211 1 -41 6 -81 10 -87 4 -7 2 -12 -4 -12 -6 0 -8 -5 -4 -11 9 -15 8 -134 -1
-150 -6 -8 -4 -10 5 -4 9 5 11 4 6 -3 -4 -6 -9 -49 -11 -94 -7 -143 -24 -284
-50 -408 -3 -14 -7 -36 -10 -50 -4 -23 -7 -35 -19 -87 -2 -10 -11 -45 -20 -78
-10 -33 -19 -67 -21 -75 -2 -8 -4 -15 -5 -15 -1 0 -3 -7 -5 -15 -2 -8 -10 -34
-19 -58 -8 -23 -15 -43 -15 -45 1 -8 -70 -186 -99 -247 -14 -30 -26 -57 -26
-60 -2 -13 -52 -105 -59 -108 -4 -2 -5 -7 -2 -12 3 -5 -1 -14 -8 -22 -7 -7
-19 -26 -27 -43 -25 -51 -74 -130 -82 -133 -4 -2 -8 -8 -8 -12 0 -12 -62 -104
-72 -108 -4 -2 -8 -8 -8 -13 0 -6 -5 -15 -10 -22 -6 -7 -42 -52 -80 -102 -137
-176 -267 -310 -459 -475 -29 -25 -59 -49 -67 -53 -7 -4 -28 -21 -46 -37 -18
-17 -38 -30 -44 -30 -7 0 -14 -3 -16 -8 -4 -8 -105 -82 -114 -82 -3 0 -20 -11
-38 -25 -18 -14 -37 -25 -41 -25 -5 0 -16 -6 -24 -14 -9 -8 -61 -38 -116 -66
-55 -29 -104 -56 -110 -60 -24 -17 -391 -162 -427 -169 -5 0 -9 -1 -10 -2 -2
0 -10 -2 -18 -5 -8 -2 -55 -15 -104 -28 -49 -14 -100 -27 -115 -30 -29 -5 -62
-12 -106 -23 -16 -4 -37 -6 -45 -5 -42 5 -42 0 -41 -326 l1 -193 48 7 c46 6
63 9 112 19 44 8 84 16 105 19 11 2 38 8 60 14 22 6 51 13 65 15 14 3 45 11
70 18 56 16 60 17 85 23 24 6 195 65 287 100 38 14 90 36 118 50 27 14 50 23
50 21 0 -5 252 124 300 153 19 12 42 25 50 29 8 3 41 24 73 45 32 21 61 38 64
38 3 0 22 14 43 30 21 17 42 30 48 30 6 0 12 4 14 8 2 4 26 23 53 42 28 19 52
38 55 41 3 3 43 36 89 74 111 88 144 119 276 251 207 209 363 408 524 672 69
114 206 381 216 424 4 16 11 28 17 28 5 0 7 3 5 8 -3 4 3 25 14 46 10 22 19
43 19 47 0 3 8 24 17 45 9 22 17 44 19 49 1 6 16 53 33 105 17 52 33 104 35
115 3 11 16 65 30 120 14 55 27 111 30 125 2 14 5 25 6 25 1 0 3 12 5 26 4 32
13 87 19 114 2 11 7 43 10 70 4 28 9 61 11 75 15 96 29 601 17 623 -2 5 -5 36
-7 70 -4 63 -12 152 -20 197 -2 14 -7 45 -10 70 -12 85 -55 285 -80 375 -14
50 -28 97 -30 105 -2 8 -14 47 -26 85 -12 39 -22 73 -21 78 1 4 -3 7 -8 7 -6
0 -10 9 -10 20 0 11 -4 28 -9 38 -6 9 -33 73 -62 142 -29 69 -63 144 -75 166
-13 23 -20 44 -17 48 4 3 2 6 -4 6 -6 0 -21 25 -34 55 -13 30 -27 55 -31 55
-5 0 -8 4 -8 9 0 12 -63 118 -117 199 -24 35 -43 65 -43 68 0 3 -19 31 -42 62
-24 31 -46 61 -50 67 -356 483 -904 912 -1456 1141 -45 19 -95 40 -110 46 -15
6 -29 12 -32 13 -3 1 -12 4 -20 8 -36 14 -275 90 -292 93 -5 1 -9 2 -10 3 -2
2 -14 4 -27 7 -13 2 -68 16 -123 30 -55 14 -105 23 -112 21 -6 -2 -18 -1 -26
4 -15 7 -51 14 -135 24 -21 3 -52 8 -69 11 -17 3 -60 7 -96 9 -36 2 -65 5 -65
5 0 4 -315 17 -318 14z"/>
<path d="M4350 6506 c-31 -13 -43 -25 -60 -56 -7 -13 -17 -29 -22 -34 -19 -22
-198 -300 -198 -308 0 -4 -4 -8 -9 -8 -5 0 -15 -12 -22 -27 -20 -39 -92 -147
-101 -151 -5 -2 -8 -7 -8 -12 0 -4 -40 -68 -88 -141 -49 -74 -94 -144 -101
-157 -7 -13 -20 -32 -29 -43 -9 -11 -26 -35 -37 -54 -44 -74 -129 -210 -135
-215 -4 -3 -9 -10 -11 -15 -2 -6 -24 -43 -49 -83 -101 -164 -220 -371 -220
-382 0 -6 -4 -10 -9 -10 -5 0 -13 -10 -17 -22 -3 -13 -15 -35 -26 -50 -11 -16
-16 -28 -11 -28 4 0 3 -4 -2 -8 -6 -4 -23 -32 -39 -62 -16 -30 -34 -64 -40
-75 -6 -11 -15 -23 -21 -27 -5 -4 -6 -8 -1 -8 5 0 2 -8 -6 -17 -8 -10 -20 -33
-28 -50 -7 -18 -17 -33 -22 -33 -5 0 -7 -4 -3 -9 3 -5 -2 -16 -10 -24 -8 -9
-15 -19 -15 -23 0 -4 -23 -52 -51 -108 -54 -106 -102 -241 -114 -316 -6 -36
-8 -175 -5 -285 1 -18 11 -84 26 -168 14 -76 111 -330 133 -347 3 -3 17 -25
30 -50 44 -82 124 -184 226 -285 97 -97 150 -145 160 -145 2 0 27 -17 55 -38
28 -21 73 -49 100 -63 27 -13 50 -27 50 -31 0 -5 9 -8 20 -8 11 0 20 -4 20
-10 0 -5 8 -10 18 -10 10 0 22 -4 28 -8 5 -5 36 -19 69 -31 33 -13 69 -27 80
-32 28 -12 121 -37 180 -49 28 -5 59 -11 70 -14 131 -28 400 -26 555 4 30 6
66 13 80 15 53 10 68 14 159 44 52 18 119 44 150 60 31 15 58 28 61 28 11 2
77 40 149 87 126 82 244 188 338 306 29 36 59 73 68 83 8 9 15 19 15 21 0 2
19 35 42 72 48 80 93 176 119 254 30 94 60 222 55 236 -3 7 -2 16 3 18 14 9
19 209 7 311 -8 71 -35 206 -44 220 -4 5 -7 16 -8 24 -7 44 -149 337 -195 402
-10 14 -16 29 -12 33 3 3 1 6 -6 6 -6 0 -16 10 -21 23 -6 12 -14 29 -20 37
-51 78 -210 343 -210 350 0 6 -4 10 -8 10 -5 0 -17 18 -28 40 -10 22 -22 40
-26 40 -5 0 -8 5 -8 10 0 9 -47 87 -60 100 -3 3 -14 21 -24 40 -11 19 -37 61
-58 93 -21 32 -38 61 -38 64 0 3 -11 20 -23 37 -13 17 -26 36 -28 41 -2 6 -49
82 -104 168 -55 87 -129 205 -165 262 -116 185 -215 340 -223 350 -4 6 -33 51
-65 101 -31 49 -64 99 -72 111 -21 28 -78 43 -110 29z"/>
</g>
</svg>
