<?xml version="1.0" encoding="UTF-8" standalone="no"?>
<svg xmlns:dc="http://purl.org/dc/elements/1.1/" xmlns:cc="http://creativecommons.org/ns#" xmlns:rdf="http://www.w3.org/1999/02/22-rdf-syntax-ns#" xmlns:svg="http://www.w3.org/2000/svg" xmlns="http://www.w3.org/2000/svg" xmlns:sodipodi="http://sodipodi.sourceforge.net/DTD/sodipodi-0.dtd" xmlns:inkscape="http://www.inkscape.org/namespaces/inkscape" width="32" height="32" viewBox="0 0 32 32.000001" id="svg2" version="1.1" inkscape:version="0.91 r13725" sodipodi:docname="cyber-crime-app-password-digital-pin-internet.svg">
  <defs id="defs4">
    <inkscape:path-effect effect="fillet-chamfer" id="path-effect7342-3" is_visible="true" fillet_chamfer_values="0,0 | -0.94427208,1" method="auto" radius="4" chamfer_steps="1" helper_size="0" flexible="false" use_knot_distance="false" ignore_radius_0="false" only_selected="true" hide_knots="false"/>
  </defs>
  <sodipodi:namedview id="base" pagecolor="#ffffff" bordercolor="#666666" borderopacity="1.0" inkscape:pageopacity="0.0" inkscape:pageshadow="2" inkscape:zoom="5.6" inkscape:cx="24.786381" inkscape:cy="6.7264715" inkscape:document-units="px" inkscape:current-layer="layer1" showgrid="false" units="px" inkscape:window-width="1366" inkscape:window-height="716" inkscape:window-x="-8" inkscape:window-y="-8" inkscape:window-maximized="1"/>
  
  <g inkscape:label="Layer 1" inkscape:groupmode="layer" id="layer1" transform="translate(0,-1020.3622)">
    <path style="fill:#3b3c3d;fill-rule:evenodd;stroke:none;stroke-width:1px;stroke-linecap:round;stroke-linejoin:round;stroke-opacity:1" d="m 4,1022.8622 a 1.5,1.5 0 0 0 -1.5,1.5 l 0,3 27,0 0,-3 a 1.5,1.5 0 0 0 -1.5,-1.5 z m 1.25391,1.75 12,0 a 0.50005,0.50005 0 1 1 0,1 l -12,0 a 0.50005,0.50005 0 1 1 0,-1 z m 17.5,0 a 0.5,0.5 0 0 1 0.5,0.5 0.5,0.5 0 0 1 -0.5,0.5 0.5,0.5 0 0 1 -0.5,-0.5 0.5,0.5 0 0 1 0.5,-0.5 z m 2,0 a 0.5,0.5 0 0 1 0.5,0.5 0.5,0.5 0 0 1 -0.5,0.5 0.5,0.5 0 0 1 -0.5,-0.5 0.5,0.5 0 0 1 0.5,-0.5 z m 2,0 a 0.5,0.5 0 0 1 0.5,0.5 0.5,0.5 0 0 1 -0.5,0.5 0.5,0.5 0 0 1 -0.5,-0.5 0.5,0.5 0 0 1 0.5,-0.5 z" id="path20848" inkscape:connector-curvature="0"/>
    <path style="fill:#3b3c3d;fill-rule:evenodd;stroke:none;stroke-width:1px;stroke-linecap:round;stroke-linejoin:round;stroke-opacity:1" d="m 2.5,1028.3622 0,20 a 1.5,1.5 0 0 0 1.5,1.5 l 24,0 a 1.5,1.5 0 0 0 1.5,-1.5 l 0,-20 z m 6.00195,8.4922 0.002,0 a 0.50004997,0.50004997 0 0 1 0.42578,0.7559 l -0.56836,0.9941 1.13086,0 a 0.50005,0.50005 0 1 1 0,1 l -1.13086,0 0.56836,0.9961 a 0.50004997,0.50004997 0 1 1 -0.86719,0.4961 l -0.5625,-0.9844 -0.5625,0.9844 a 0.50038018,0.50038018 0 1 1 -0.86719,-0.4961 l 0.57031,-0.9961 -1.13281,0 a 0.50005,0.50005 0 1 1 0,-1 l 1.13086,0 -0.56836,-0.9941 a 0.50004997,0.50004997 0 0 1 0.41407,-0.754 0.50004997,0.50004997 0 0 1 0.45507,0.2579 l 0.5625,0.9843 0.5625,-0.9843 a 0.50004997,0.50004997 0 0 1 0.4375,-0.2598 z m 6,0 0.002,0 a 0.50004997,0.50004997 0 0 1 0.42578,0.7559 l -0.56836,0.9941 1.13086,0 a 0.50005,0.50005 0 1 1 0,1 l -1.13086,0 0.56836,0.9961 a 0.50004997,0.50004997 0 1 1 -0.86719,0.4961 l -0.5625,-0.9844 -0.5625,0.9844 a 0.50038018,0.50038018 0 1 1 -0.86719,-0.4961 l 0.57031,-0.9961 -1.13281,0 a 0.50005,0.50005 0 1 1 0,-1 l 1.13086,0 -0.56836,-0.9941 a 0.50004997,0.50004997 0 0 1 0.41407,-0.754 0.50004997,0.50004997 0 0 1 0.45507,0.2579 l 0.5625,0.9843 0.5625,-0.9843 a 0.50004997,0.50004997 0 0 1 0.4375,-0.2598 z m 3.00782,3.5137 3.48437,0 a 0.50005,0.50005 0 1 1 0,1 l -3.48437,0 a 0.50005,0.50005 0 1 1 0,-1 z m 5.5,0 3.48437,0 a 0.50005,0.50005 0 1 1 0,1 l -3.48437,0 a 0.50005,0.50005 0 1 1 0,-1 z" id="path8211-1-6" inkscape:connector-curvature="0"/>
  </g>
</svg>
