<?xml version="1.0" encoding="UTF-8" standalone="no"?>
<svg xmlns:dc="http://purl.org/dc/elements/1.1/" xmlns:cc="http://creativecommons.org/ns#" xmlns:rdf="http://www.w3.org/1999/02/22-rdf-syntax-ns#" xmlns:svg="http://www.w3.org/2000/svg" xmlns="http://www.w3.org/2000/svg" xmlns:sodipodi="http://sodipodi.sourceforge.net/DTD/sodipodi-0.dtd" xmlns:inkscape="http://www.inkscape.org/namespaces/inkscape" width="32" height="32" viewBox="0 0 32 32.000001" id="svg2" version="1.1" inkscape:version="0.91 r13725" sodipodi:docname="document-paper-paperwork-confidential-security-protection-safe.svg">
  <defs id="defs4">
    <inkscape:path-effect effect="fillet-chamfer" id="path-effect7342-3" is_visible="true" fillet_chamfer_values="0,0 | -0.94427208,1" method="auto" radius="4" chamfer_steps="1" helper_size="0" flexible="false" use_knot_distance="false" ignore_radius_0="false" only_selected="true" hide_knots="false"/>
    <inkscape:path-effect hide_knots="false" only_selected="true" ignore_radius_0="false" use_knot_distance="false" flexible="false" helper_size="0" chamfer_steps="1" radius="1.5" method="auto" fillet_chamfer_values="0,1 | 0,1 | -1.5,1 | -1.5,1" is_visible="true" id="path-effect13487" effect="fillet-chamfer"/>
  </defs>
  <sodipodi:namedview id="base" pagecolor="#ffffff" bordercolor="#666666" borderopacity="1.0" inkscape:pageopacity="0.0" inkscape:pageshadow="2" inkscape:zoom="11.2" inkscape:cx="5.0838177" inkscape:cy="15.4748" inkscape:document-units="px" inkscape:current-layer="layer1" showgrid="false" units="px" inkscape:window-width="1366" inkscape:window-height="716" inkscape:window-x="-8" inkscape:window-y="-8" inkscape:window-maximized="1"/>
  
  <g inkscape:label="Layer 1" inkscape:groupmode="layer" id="layer1" transform="translate(0,-1020.3622)">
    <path sodipodi:nodetypes="cccccccc" inkscape:connector-curvature="0" id="path13412" d="m 6.506917,1020.8624 -0.0078,1.5019 13.750001,0 4.75,4.5 0,14.75 1.500003,0 0,-20.75 z" style="opacity:1;fill:#3b3c3d;fill-opacity:1;stroke:none;stroke-width:1.00157475;stroke-linecap:round;stroke-linejoin:round;stroke-miterlimit:4;stroke-dasharray:none;stroke-opacity:1"/>
    <path style="opacity:1;fill:#3b3c3d;fill-opacity:1;stroke:none;stroke-width:1;stroke-linecap:butt;stroke-linejoin:round;stroke-miterlimit:4;stroke-dasharray:none;stroke-opacity:1" d="m 3.999105,1023.3662 0,26.4961 16.294922,0 c -0.862544,-1.4407 -1.430302,-3.5352 -1.046875,-6.4492 l 0.09961,-0.7558 0.763672,0 c 1.24279,-0.01 2.378219,-0.4948 3.261719,-1.4024 l 0.626952,-0.6465 c -3.96e-4,-4.1646 -0.0016,-8.3293 -0.002,-12.4941 l -4.248,0 a 0.50005,0.50005 0 0 1 -0.5,-0.5 l 0,-4.2481 z m 16.25,0.252 0,3.4961 3.496094,0 z m -13.277344,2.2442 a 0.50005668,0.50004322 0 0 1 0.0332,0 l 1.486329,0 a 0.50005668,0.50004322 0 1 1 0,1 l -1.486329,0 a 0.50028899,0.50027552 0 0 1 -0.0332,-1 z m 3.25,0 a 0.50005674,0.50004328 0 0 1 0.0332,0 l 0.986329,0 a 0.50005674,0.50004328 0 1 1 0,1 l -0.986329,0 a 0.50028899,0.50027552 0 0 1 -0.0332,-1 z m -3.238281,1.998 a 0.50101348,0.501 0 0 1 0.02148,0 l 0,0 4.236329,0 a 0.50005674,0.50004328 0 1 1 0,1 l -4.236329,0 a 0.50110863,0.50109515 0 0 1 -0.02148,-1.002 z m 1.015625,4.5 a 0.50099997,0.50098652 0 0 1 0.01367,0 l 3.73633,0 a 0.50005674,0.5000433 0 1 1 0,1 l -3.736328,0 a 0.50103509,0.50102164 0 0 1 -0.013672,-0.998 z m 5.480469,0 a 0.50005668,0.50004324 0 0 1 0.0332,0 l 3.236331,0 a 0.50005668,0.50004324 0 1 1 0,1 l -3.236328,0 a 0.50028897,0.50027552 0 0 1 -0.0332,-1 z m 6.511719,0 a 0.50101345,0.501 0 0 1 0,1.002 l -1.484376,0 a 0.50005674,0.5000433 0 1 1 0,-1 z m -12.029297,2 a 0.50005674,0.5000433 0 0 1 0.05078,0 l 6.736329,0 a 0.50005674,0.5000433 0 1 1 0,1 l -6.736328,0 a 0.50065772,0.50064428 0 0 1 -0.05078,-1 z m 8.5,0 a 0.50005674,0.5000433 0 0 1 0.05078,0 l 3.486329,0 a 0.50005674,0.5000433 0 1 1 0,1 l -3.486328,0 a 0.50065772,0.50064428 0 0 1 -0.05078,-1 z m -8.5,2 a 0.50005674,0.5000433 0 0 1 0.05078,0 l 1.486329,0 a 0.50005674,0.5000433 0 1 1 0,1 l -1.486328,0 a 0.50065772,0.50064428 0 0 1 -0.05078,-1 z m 3.25,0 a 0.50005674,0.5000433 0 0 1 0.05078,0 l 2.736329,0 a 0.50005674,0.5000433 0 1 1 0,1 l -2.736328,0 a 0.50065772,0.50064428 0 0 1 -0.05078,-1 z m 4.5,0 a 0.50005674,0.5000433 0 0 1 0.05078,0 l 4.236329,0 a 0.50005674,0.5000433 0 1 1 0,1 l -4.236328,0 a 0.50065772,0.50064428 0 0 1 -0.05078,-1 z m -7.730469,1.998 a 0.50005674,0.5000433 0 0 1 0.0332,0 l 3.484378,0 a 0.50005674,0.5000433 0 1 1 0,1 l -3.484375,0 a 0.50028897,0.50027552 0 0 1 -0.0332,-1 z m 5.25,0 a 0.50005674,0.5000433 0 0 1 0.0332,0 l 6.734378,0 a 0.50005674,0.5000433 0 1 1 0,1 l -6.734375,0 a 0.50028897,0.50027552 0 0 1 -0.0332,-1 z m -5.25,1.9961 a 0.50005674,0.5000433 0 0 1 0.0332,0 l 4.234378,0 a 0.50005674,0.5000433 0 1 1 0,1 l -4.234375,0 a 0.50028897,0.50027552 0 0 1 -0.0332,-1 z m 8.767578,0 a 0.501,0.50098655 0 1 1 0,1.002 l -2.734375,0 a 0.50005674,0.5000433 0 1 1 0,-1 l 2.734375,0 z m 1.732422,0 a 0.50005674,0.5000433 0 0 1 0.0332,0 l 1.484378,0 a 0.50005674,0.5000433 0 1 1 0,1 l -1.484375,0 a 0.50028897,0.50027552 0 0 1 -0.0332,-1 z m -8.50586,2 a 0.50117497,0.50116152 0 0 1 0.01172,0 0.501,0.50098655 0 0 1 0.02734,0 l 7.984378,0 a 0.501,0.50098655 0 1 1 0,1.002 l -7.984375,0 a 0.50137402,0.50136057 0 0 1 -0.03906,-1.002 z" id="rect6295-5-1-5-8" inkscape:connector-curvature="0"/>
    <path id="path6557-2-2-4-3" d="m 27.882765,1043.5288 c -1.46837,0 -2.87223,-0.6033 -3.88446,-1.6666 -1.03927,1.0677 -2.4097,1.6578 -3.8829,1.6666 -0.92592,7.0369 3.88313,8.3332 3.88313,8.3332 0,0 4.80905,-1.2963 3.88423,-8.3332 z" style="opacity:1;fill:#3b3c3d;fill-opacity:1;stroke:none;stroke-width:0.99999988;stroke-linecap:butt;stroke-linejoin:round;stroke-miterlimit:4;stroke-dasharray:none;stroke-opacity:1" inkscape:connector-curvature="0" sodipodi:nodetypes="ccccc"/>
  </g></svg>
