<?xml version="1.0" encoding="UTF-8" standalone="no"?>
<svg xmlns:dc="http://purl.org/dc/elements/1.1/" xmlns:cc="http://creativecommons.org/ns#" xmlns:rdf="http://www.w3.org/1999/02/22-rdf-syntax-ns#" xmlns:svg="http://www.w3.org/2000/svg" xmlns="http://www.w3.org/2000/svg" xmlns:sodipodi="http://sodipodi.sourceforge.net/DTD/sodipodi-0.dtd" xmlns:inkscape="http://www.inkscape.org/namespaces/inkscape" width="32" height="32" viewBox="0 0 32 32.000001" id="svg2" version="1.1" inkscape:version="0.91 r13725" sodipodi:docname="lock-safe-safety-protection-secure-security.svg">
  <defs id="defs4">
    <inkscape:path-effect effect="fillet-chamfer" id="path-effect7342-3" is_visible="true" fillet_chamfer_values="0,0 | -0.94427208,1" method="auto" radius="4" chamfer_steps="1" helper_size="0" flexible="false" use_knot_distance="false" ignore_radius_0="false" only_selected="true" hide_knots="false"/>
    <inkscape:path-effect hide_knots="false" only_selected="true" ignore_radius_0="false" use_knot_distance="false" flexible="false" helper_size="0" chamfer_steps="1" radius="1.5" method="auto" fillet_chamfer_values="0,1 | 0,1 | -1.5,1 | -1.5,1" is_visible="true" id="path-effect13487" effect="fillet-chamfer"/>
  </defs>
  <sodipodi:namedview id="base" pagecolor="#ffffff" bordercolor="#666666" borderopacity="1.0" inkscape:pageopacity="0.0" inkscape:pageshadow="2" inkscape:zoom="11.2" inkscape:cx="-17.507343" inkscape:cy="24.926914" inkscape:document-units="px" inkscape:current-layer="layer1" showgrid="false" units="px" inkscape:window-width="1366" inkscape:window-height="716" inkscape:window-x="-8" inkscape:window-y="-8" inkscape:window-maximized="1"/>
  
  <g inkscape:label="Layer 1" inkscape:groupmode="layer" id="layer1" transform="translate(0,-1020.3622)">
    <path id="path10647-2" d="m 15.99991,1023.3622 c -2.76142,0 -5,2.2386 -5,5 l 0.004,5.5 -3.25391,0 0,2.5 2.25,0 a 0.75,0.75 0 0 1 0.75,0.75 l 0,0.5 a 0.75,0.75 0 0 1 -0.75,0.75 l -2.25,0 0,2 2.25,0 a 0.75,0.75 0 0 1 0.75,0.75 l 0,0.5 a 0.75,0.75 0 0 1 -0.75,0.75 l -2.25,0 0,2 2.25,0 a 0.75,0.75 0 0 1 0.75,0.75 l 0,0.5 a 0.75,0.75 0 0 1 -0.75,0.75 l -2.25,0 0,3 6.75,0 0,-0.25 a 1,1 0 0 1 1,-1 l 0.5,0 a 1,1 0 0 1 1,1 l 0,0.25 7.25,0 0,-3 -2.25,0 a 0.75,0.75 0 0 1 -0.75,-0.75 l 0,-0.5 a 0.75,0.75 0 0 1 0.75,-0.75 l 2.25,0 0,-2 -2.25,0 a 0.75,0.75 0 0 1 -0.75,-0.75 l 0,-0.5 a 0.75,0.75 0 0 1 0.75,-0.75 l 2.25,0 0,-2 -2.25,0 a 0.75,0.75 0 0 1 -0.75,-0.75 l 0,-0.5 a 0.75,0.75 0 0 1 0.75,-0.75 l 2.25,0 0,-2.5 -3.23438,0 -0.0156,-5.5 c 3e-5,-2.7614 -2.2386,-5 -5,-5 z m 0,2 c 1.65685,0 3,1.3432 3,3 l 0.0156,5.5 -6.01171,0 -0.004,-5.5 c -0.001,-1.6568 1.34315,-3 3,-3 z" style="opacity:1;fill:#3b3c3d;fill-opacity:1;stroke:none;stroke-width:1;stroke-linecap:round;stroke-linejoin:round;stroke-miterlimit:4;stroke-dasharray:none;stroke-opacity:1" inkscape:connector-curvature="0"/>
  </g></svg>
