<svg xmlns="http://www.w3.org/2000/svg" viewBox="0 0 306 62.1"><defs><style>.cls-1{fill:#ffffff;}</style></defs><g id="Capa_2" data-name="Capa 2"><g id="Capa_1-2" data-name="Capa 1"><g id="SvgjsG3849"><path class="cls-1" d="M27.49,42.86a14.86,14.86,0,0,0,1.78,1.77,4.37,4.37,0,0,0,.89.7c.06.07.19.13.25.19.32.19.64.45,1,.64a.5.5,0,0,0,.25.13c.38.19.7.38,1.08.57.06,0,.13.06.19.06a7,7,0,0,0,1.21.51c.06,0,.12.06.19.06.38.13.82.32,1.27.45.06,0,.12.06.19.06.44.13.88.19,1.27.32h.19l1.27.19h.25a9.87,9.87,0,0,0,1.33.06,10,10,0,0,0,1.34-.06h.25l1.27-.19h.19A7.6,7.6,0,0,0,44.38,48c.06,0,.13-.06.19-.06a10.11,10.11,0,0,0,1.27-.45c.06,0,.13-.06.19-.06a10.4,10.4,0,0,0,1.21-.51c.06,0,.13-.06.19-.06.38-.19.7-.38,1.08-.57a.43.43,0,0,1,.25-.13,6.88,6.88,0,0,0,1-.64c.07-.06.19-.12.26-.19l.89-.7a15.57,15.57,0,0,0,1.77-1.77l.2-.19a16.39,16.39,0,0,0,3.68-10.35c0-7.11-10.8-24.19-16.38-32.32C34.41,8.13,23.62,25.21,23.62,32.32A16.51,16.51,0,0,0,27.3,42.67Z"/><path class="cls-1" d="M61.84,46.16c3.49,1.21,6.1,3,6.1,5.46,0,6.54-18.29,8.25-27.94,8.25s-27.94-1.71-27.94-8.25c0-2.48,2.61-4.25,6.1-5.46C5.71,48.13,0,51.3,0,53.33c0,3.56,15.56,8.77,40,8.77s40-5.21,40-8.77C80,51.3,74.29,48.13,61.84,46.16Z"/><path class="cls-1" d="M51.17,48.57h0a21.19,21.19,0,0,1-5.27,2.6h-.06c-.25.07-.57.2-.82.26a.23.23,0,0,0-.19.06l-.77.19c-.12,0-.19.07-.31.07s-.19.06-.26.06h-.06c-.13,0-.19.06-.32.06s-.32.07-.44.07-.38.06-.57.06h-.64a1.27,1.27,0,0,0-.44.06H39a1.3,1.3,0,0,1-.44-.06H37.9c-.19,0-.38-.06-.57-.06s-.31-.07-.44-.07-.19-.06-.32-.06h-.06c-.07,0-.19-.06-.26-.06s-.19-.07-.31-.07l-.77-.19a.25.25,0,0,1-.19-.06,3.71,3.71,0,0,1-.82-.26H34.1a17.64,17.64,0,0,1-5.27-2.6h0a10.44,10.44,0,0,1-1.34-1c-9,1.27-12,3.42-12.06,4.06C15.49,53.08,24,56.51,40,56.51s24.51-3.43,24.57-4.89c-.06-.64-3-2.79-12.06-4.06A7.46,7.46,0,0,1,51.17,48.57Z"/></g><g id="SvgjsG3850"><path class="cls-1" d="M120.92,26.79a5.11,5.11,0,0,0-2.7-.85,4.27,4.27,0,0,0-2.37.69,4.46,4.46,0,0,0-1.66,1.9,6.06,6.06,0,0,0-.59,2.74,6.21,6.21,0,0,0,.59,2.76A4.6,4.6,0,0,0,115.85,36a4.21,4.21,0,0,0,2.37.71,5.73,5.73,0,0,0,2.61-.72,8.87,8.87,0,0,0,2.47-1.9l4.28,4.56a14,14,0,0,1-4.52,3.31,12.41,12.41,0,0,1-11.3-.29,11,11,0,0,1-4.23-4.21A12.06,12.06,0,0,1,106,31.37a11.48,11.48,0,0,1,1.56-6,11.17,11.17,0,0,1,4.33-4.13,13,13,0,0,1,11.38-.37,12.66,12.66,0,0,1,4.31,3L123.3,29A8.07,8.07,0,0,0,120.92,26.79Zm21.34-.69a7.88,7.88,0,0,1,3.22,3.37,11,11,0,0,1,1.12,5.12q0,.6,0,.93H135.21a2.89,2.89,0,0,0,2.9,2.07A5.09,5.09,0,0,0,141.65,36l3.74,3.67a9.3,9.3,0,0,1-3.4,2.38,11.94,11.94,0,0,1-4.52.81,11.11,11.11,0,0,1-5.09-1.1,7.73,7.73,0,0,1-3.29-3.11A9.48,9.48,0,0,1,128,34a9.53,9.53,0,0,1,1.15-4.78A7.79,7.79,0,0,1,132.38,26a10.32,10.32,0,0,1,4.9-1.12A10,10,0,0,1,142.26,26.1Zm-3.4,4.31a2,2,0,0,0-3,0,3.7,3.7,0,0,0-.81,1.82h4.34A2.48,2.48,0,0,0,138.86,30.41Zm25.69-4.72A5.73,5.73,0,0,1,166.77,28a7.31,7.31,0,0,1,.8,3.47V42.63h-7.18V33.57a2.52,2.52,0,0,0-.58-1.74,1.88,1.88,0,0,0-1.5-.65,2,2,0,0,0-1.67.76,3.11,3.11,0,0,0-.62,2v8.65h-7.19V25.17H156v2.49a6,6,0,0,1,2.25-2.09,6.37,6.37,0,0,1,3-.71A6.2,6.2,0,0,1,164.55,25.69Zm18.5,16.18a7.51,7.51,0,0,1-2.25.8A14,14,0,0,1,178,43a6.7,6.7,0,0,1-4.71-1.61A5.54,5.54,0,0,1,171.5,37V30.66h-2.4V26.13h2.4V21.25h7.15v4.88h4.08v4.53h-4.08v5.27A1.49,1.49,0,0,0,179,37a1.24,1.24,0,0,0,1,.37,5.64,5.64,0,0,0,1.79-.45Zm11.7-16.26a6.18,6.18,0,0,1,3.05-.75v6.47a10.89,10.89,0,0,0-1.38-.09,4.65,4.65,0,0,0-2.9.81,2.71,2.71,0,0,0-1.05,2.25v8.33h-7.18V25.17h7.18v2.56A6.41,6.41,0,0,1,194.75,25.61Zm19.53.95a5.77,5.77,0,0,1,2.13,4.77v11.3h-7.06V40.75a5.65,5.65,0,0,1-4.91,2.2,6,6,0,0,1-4.3-1.48,5.31,5.31,0,0,1-1.55-4,4.66,4.66,0,0,1,1.73-3.92,8.37,8.37,0,0,1,5-1.41h4a1.72,1.72,0,0,0-.72-1.42,3.36,3.36,0,0,0-2-.49,11.93,11.93,0,0,0-2.44.29,18.39,18.39,0,0,0-2.86.82l-1.6-4.78a26.89,26.89,0,0,1,4.46-1.26,21.62,21.62,0,0,1,4.16-.43,9.19,9.19,0,0,1,5.92,1.7Zm-6,11.48a3,3,0,0,0,1.07-1v-1.6h-2.49q-1.53,0-1.53,1.41a1.52,1.52,0,0,0,.41,1.13,1.63,1.63,0,0,0,1.19.4A2.86,2.86,0,0,0,208.28,38ZM219.6,19h7.18V42.63H219.6Zm23.87,7.15a7.9,7.9,0,0,1,3.23,3.37,11.17,11.17,0,0,1,1.11,5.12q0,.6,0,.93H236.42a2.89,2.89,0,0,0,2.9,2.07A5.13,5.13,0,0,0,242.87,36l3.73,3.67a9.3,9.3,0,0,1-3.4,2.38,11.9,11.9,0,0,1-4.52.81,11.13,11.13,0,0,1-5.09-1.1,7.71,7.71,0,0,1-3.28-3.11,9.37,9.37,0,0,1-1.14-4.7,9.63,9.63,0,0,1,1.15-4.78A7.85,7.85,0,0,1,233.59,26a10.32,10.32,0,0,1,4.9-1.12A10,10,0,0,1,243.47,26.1Zm-3.4,4.31a1.88,1.88,0,0,0-1.51-.7,1.9,1.9,0,0,0-1.49.67,3.79,3.79,0,0,0-.81,1.82h4.34A2.43,2.43,0,0,0,240.07,30.41Zm24.39-3.85a5.8,5.8,0,0,1,2.12,4.77v11.3h-7.05V40.75a5.68,5.68,0,0,1-4.92,2.2,5.93,5.93,0,0,1-4.29-1.48,5.31,5.31,0,0,1-1.55-4,4.68,4.68,0,0,1,1.72-3.92,8.39,8.39,0,0,1,5-1.41h4a1.72,1.72,0,0,0-.72-1.42,3.39,3.39,0,0,0-2-.49,12,12,0,0,0-2.44.29,18.28,18.28,0,0,0-2.85.82l-1.6-4.78a26.78,26.78,0,0,1,4.45-1.26,21.72,21.72,0,0,1,4.17-.43,9.21,9.21,0,0,1,5.92,1.7Zm-6,11.48a3.07,3.07,0,0,0,1.07-1v-1.6H257q-1.53,0-1.53,1.41a1.48,1.48,0,0,0,.41,1.13,1.62,1.62,0,0,0,1.18.4A2.9,2.9,0,0,0,258.46,38Zm30.66-12.87-6.36,6.74L289,42.63H280.5l-2.68-5.49L277,38v4.59h-7.18V19H277V29.71L281,25.17Zm8.61,4.41a1.42,1.42,0,0,0-.72.16.47.47,0,0,0-.27.41c0,.26.2.47.58.64a14.62,14.62,0,0,0,1.91.61,29.37,29.37,0,0,1,3.23,1.05,6.36,6.36,0,0,1,2.34,1.66,4.19,4.19,0,0,1,1,2.91,5.15,5.15,0,0,1-1,3.12,6.11,6.11,0,0,1-2.76,2.08,10.92,10.92,0,0,1-4.18.73,14.74,14.74,0,0,1-8.52-2.49L291.54,36A12.48,12.48,0,0,0,298,38.17a1.78,1.78,0,0,0,.8-.15.41.41,0,0,0,.28-.37c0-.23-.18-.43-.55-.59a13.94,13.94,0,0,0-1.81-.55,22.69,22.69,0,0,1-3.19-1,6.3,6.3,0,0,1-2.31-1.66,4.21,4.21,0,0,1-1-2.93,5.39,5.39,0,0,1,1-3.18,6.25,6.25,0,0,1,2.7-2.1,10.06,10.06,0,0,1,4-.75,16.35,16.35,0,0,1,8.11,2.2l-2.36,4.43q-3.9-1.9-5.91-1.91Z"/></g></g></g></svg>